<mxfile host="app.diagrams.net" modified="2022-06-22T15:57:04.303Z" agent="5.0 (Windows NT 10.0; Win64; x64) AppleWebKit/537.36 (KHTML, like Gecko) Chrome/102.0.0.0 Safari/537.36" etag="DKW1zinRHsSTXQuHcQRY" version="20.0.1" type="github">
  <diagram id="ZIZBugeu8SHKZ1YfKmvS" name="Page-1">
    <mxGraphModel dx="1406" dy="-412" grid="1" gridSize="10" guides="1" tooltips="1" connect="1" arrows="1" fold="1" page="1" pageScale="1" pageWidth="850" pageHeight="1100" math="0" shadow="0">
      <root>
        <mxCell id="0" />
        <mxCell id="1" parent="0" />
        <mxCell id="OmiyFG4nDM8Nx7aOeWYS-1" value="Recommendation System" style="ellipse;whiteSpace=wrap;html=1;aspect=fixed;fillColor=#dae8fc;strokeColor=#6c8ebf;" vertex="1" parent="1">
          <mxGeometry x="325.5" y="1490" width="109" height="109" as="geometry" />
        </mxCell>
        <mxCell id="OmiyFG4nDM8Nx7aOeWYS-2" value="Client/Student" style="rounded=0;whiteSpace=wrap;html=1;fillColor=#dae8fc;strokeColor=#6c8ebf;" vertex="1" parent="1">
          <mxGeometry x="320" y="1330" width="120" height="60" as="geometry" />
        </mxCell>
        <mxCell id="OmiyFG4nDM8Nx7aOeWYS-3" value="Model" style="rounded=0;whiteSpace=wrap;html=1;fillColor=#dae8fc;strokeColor=#6c8ebf;" vertex="1" parent="1">
          <mxGeometry x="560" y="1700" width="120" height="60" as="geometry" />
        </mxCell>
        <mxCell id="OmiyFG4nDM8Nx7aOeWYS-4" value="Nodejs backened" style="rounded=0;whiteSpace=wrap;html=1;fillColor=#dae8fc;strokeColor=#6c8ebf;" vertex="1" parent="1">
          <mxGeometry x="320.5" y="1700" width="120" height="60" as="geometry" />
        </mxCell>
        <mxCell id="OmiyFG4nDM8Nx7aOeWYS-5" value="Response" style="endArrow=open;endSize=12;dashed=1;html=1;rounded=0;exitX=0.723;exitY=0.011;exitDx=0;exitDy=0;exitPerimeter=0;entryX=0.75;entryY=1;entryDx=0;entryDy=0;fillColor=#dae8fc;strokeColor=#6c8ebf;" edge="1" parent="1" source="OmiyFG4nDM8Nx7aOeWYS-1" target="OmiyFG4nDM8Nx7aOeWYS-2">
          <mxGeometry width="160" relative="1" as="geometry">
            <mxPoint x="300.5" y="1470" as="sourcePoint" />
            <mxPoint x="460.5" y="1470" as="targetPoint" />
            <Array as="points">
              <mxPoint x="415.5" y="1450" />
            </Array>
          </mxGeometry>
        </mxCell>
        <mxCell id="OmiyFG4nDM8Nx7aOeWYS-6" value="Text" style="edgeLabel;html=1;align=center;verticalAlign=middle;resizable=0;points=[];" vertex="1" connectable="0" parent="OmiyFG4nDM8Nx7aOeWYS-5">
          <mxGeometry x="-0.3027" y="-3" relative="1" as="geometry">
            <mxPoint as="offset" />
          </mxGeometry>
        </mxCell>
        <mxCell id="OmiyFG4nDM8Nx7aOeWYS-7" value="" style="endArrow=classic;html=1;rounded=0;exitX=0.25;exitY=1;exitDx=0;exitDy=0;entryX=0.31;entryY=0.02;entryDx=0;entryDy=0;entryPerimeter=0;fillColor=#dae8fc;strokeColor=#6c8ebf;" edge="1" parent="1" source="OmiyFG4nDM8Nx7aOeWYS-2" target="OmiyFG4nDM8Nx7aOeWYS-1">
          <mxGeometry relative="1" as="geometry">
            <mxPoint x="115.5" y="1420" as="sourcePoint" />
            <mxPoint x="355.5" y="1480" as="targetPoint" />
            <Array as="points">
              <mxPoint x="345.5" y="1440" />
            </Array>
          </mxGeometry>
        </mxCell>
        <mxCell id="OmiyFG4nDM8Nx7aOeWYS-8" value="Request" style="edgeLabel;resizable=0;html=1;align=center;verticalAlign=middle;" connectable="0" vertex="1" parent="OmiyFG4nDM8Nx7aOeWYS-7">
          <mxGeometry relative="1" as="geometry" />
        </mxCell>
        <mxCell id="OmiyFG4nDM8Nx7aOeWYS-9" value="" style="endArrow=classic;html=1;rounded=0;exitX=0.25;exitY=1;exitDx=0;exitDy=0;entryX=0.31;entryY=0.02;entryDx=0;entryDy=0;entryPerimeter=0;fillColor=#dae8fc;strokeColor=#6c8ebf;" edge="1" parent="1">
          <mxGeometry relative="1" as="geometry">
            <mxPoint x="360" y="1597.8199999999997" as="sourcePoint" />
            <mxPoint x="369.28999999999996" y="1700" as="targetPoint" />
            <Array as="points">
              <mxPoint x="355.5" y="1647.82" />
            </Array>
          </mxGeometry>
        </mxCell>
        <mxCell id="OmiyFG4nDM8Nx7aOeWYS-10" value="Request" style="edgeLabel;resizable=0;html=1;align=center;verticalAlign=middle;" connectable="0" vertex="1" parent="OmiyFG4nDM8Nx7aOeWYS-9">
          <mxGeometry relative="1" as="geometry" />
        </mxCell>
        <mxCell id="OmiyFG4nDM8Nx7aOeWYS-11" value="Response" style="endArrow=open;endSize=12;dashed=1;html=1;rounded=0;exitX=0.723;exitY=0.011;exitDx=0;exitDy=0;exitPerimeter=0;fillColor=#dae8fc;strokeColor=#6c8ebf;entryX=0.748;entryY=0.928;entryDx=0;entryDy=0;entryPerimeter=0;" edge="1" parent="1" target="OmiyFG4nDM8Nx7aOeWYS-1">
          <mxGeometry width="160" relative="1" as="geometry">
            <mxPoint x="414.3069999999998" y="1699.9989999999998" as="sourcePoint" />
            <mxPoint x="420" y="1598.8" as="targetPoint" />
            <Array as="points">
              <mxPoint x="425" y="1660" />
            </Array>
          </mxGeometry>
        </mxCell>
        <mxCell id="OmiyFG4nDM8Nx7aOeWYS-12" value="" style="endArrow=classic;html=1;rounded=0;entryX=0;entryY=0.75;entryDx=0;entryDy=0;fillColor=#dae8fc;strokeColor=#6c8ebf;" edge="1" parent="1" source="OmiyFG4nDM8Nx7aOeWYS-4" target="OmiyFG4nDM8Nx7aOeWYS-3">
          <mxGeometry relative="1" as="geometry">
            <mxPoint x="479.5" y="1708.9999999999998" as="sourcePoint" />
            <mxPoint x="488.78999999999996" y="1811.18" as="targetPoint" />
            <Array as="points">
              <mxPoint x="495" y="1760" />
            </Array>
          </mxGeometry>
        </mxCell>
        <mxCell id="OmiyFG4nDM8Nx7aOeWYS-13" value="Request" style="edgeLabel;resizable=0;html=1;align=center;verticalAlign=middle;" connectable="0" vertex="1" parent="OmiyFG4nDM8Nx7aOeWYS-12">
          <mxGeometry relative="1" as="geometry" />
        </mxCell>
        <mxCell id="OmiyFG4nDM8Nx7aOeWYS-14" value="Response" style="endArrow=open;endSize=12;dashed=1;html=1;rounded=0;exitX=0;exitY=0.25;exitDx=0;exitDy=0;fillColor=#dae8fc;strokeColor=#6c8ebf;" edge="1" parent="1" source="OmiyFG4nDM8Nx7aOeWYS-3" target="OmiyFG4nDM8Nx7aOeWYS-4">
          <mxGeometry width="160" relative="1" as="geometry">
            <mxPoint x="489.1769999999998" y="1735.2589999999998" as="sourcePoint" />
            <mxPoint x="476.0012807837728" y="1629.996629787837" as="targetPoint" />
            <Array as="points">
              <mxPoint x="500" y="1700" />
            </Array>
          </mxGeometry>
        </mxCell>
      </root>
    </mxGraphModel>
  </diagram>
</mxfile>
